<svg xmlns="http://www.w3.org/2000/svg" viewBox="-45 64 59 23" width="59" height="23"><path d="M-13.9 82.5h-1V70.2h-6.6v1.2c0 3.7-.1 8-1.4 11h-.9V87h2v-2.8h6V87h2v-4.5zm9.1-.9c-.5.4-1.5 1-2.7 1-1.7 0-2.6-1.7-2.6-4.9h5.8v-1.2c0-4.7-1.5-6.5-3.9-6.5-3 0-4.2 3.3-4.2 7.8 0 4.3 1.8 6.6 4.7 6.6 1.4 0 2.6-.4 3.4-1.1l-.5-1.7zm-22.5-11.4v5.7h-3.2v-5.7h-2.2v14h2.2v-6.5h3.2v6.5h2.2v-14h-2.2zm30.9 14H6l-4-7.4 3.5-6.6H3.3l-3.4 6.5v-6.5h-2v14h2v-7l3.7 7zm10.5-.8l-.5-1.6c-.5.4-1.3.8-2.3.8-1.8 0-2.6-2-2.6-5.5s1.1-5.3 2.7-5.3c.8 0 1.7.5 2.3 1l.3-2c-.6-.5-1.4-.8-2.6-.8-3.3 0-5 2.8-5 7.2 0 4.8 1.8 7.2 4.8 7.2 1.3 0 2.2-.4 3-1zm-31.2-1h-3.7a31 31 0 001.3-10.2v-.3h2.4v10.5zM-6.6 76h-3.6c.2-2.5.7-4.1 2-4.1s1.6 1.7 1.6 4.1zm-30.7.7v7.6h2.1v-20h-3.2c-3.1 0-5.8 1.9-5.8 5.9 0 3.5 1.2 5 3 6l-3.8 8.1h2.5l3.4-7.6h1.8zm0-1.8h-1.2c-1.8 0-3.4-1-3.4-4.5 0-3.1 1.7-4.4 3.4-4.4h1.2v8.9z"/></svg>